<svg  aria-hidden="true" viewBox="0 0 24 24">
		
	<path d="M17.556 19.343a5.276 5.276 0 01-.791-4.429l.98-3.656a5.172 5.172 0 00-2.26-5.72c.185-.198.33-.444.405-.724a1.706 1.706 0 00-1.205-2.087 1.706 1.706 0 00-2.099 2.034A5.172 5.172 0 007.77 8.585l-.98 3.657a5.275 5.275 0 01-2.9 3.439.884.884 0 00-.519.891c.034.38.293.693.662.791l4.73 1.268a2.87 2.87 0 002.118 2.954 2.87 2.87 0 003.31-1.5l2.408.646a.888.888 0 00.969-.355.9.9 0 00-.012-1.033zM14.391 3.81a.578.578 0 11-.3 1.119.578.578 0 11.3-1.119zm-3.226 16.684a1.747 1.747 0 01-1.286-1.568l3.187.854a1.747 1.747 0 01-1.901.714z" fill-rule="evenodd"></path></svg>